<svg xmlns="http://www.w3.org/2000/svg" viewBox="0 0 512 512"><rect width="512" height="512" rx="104" fill="#017356"/><g transform="translate(76.54 -199.51) scale(1.5138)"><path d="M 171.12 212.63 C 154.88 204.17, 141.65 201.82, 124.55 204.35 C 104.33 207.35, 98.21 209.93, 81.12 222.71 C 74.47 227.69, 72.31 229.89, 66.49 237.62 C 48.77 261.18, 40 286.66, 42.51 307.27 C 43.85 318.26, 45.09 322.2, 50.44 332.49 C 56.13 343.42, 62.73 350.01, 75.78 357.78 C 85.5 363.57, 100.01 368.99, 108.14 369.87 C 120.34 371.18, 131.9 368.52, 145.94 361.16 C 151.71 358.13, 153.18 358.13, 151.92 361.16 C 150.56 364.4, 151.4 381.09, 153.14 385.6 C 157.85 397.8, 173.45 400, 182.18 389.69 C 186.14 385.02, 186.78 382.85, 186.4 375.44 C 186.06 368.61, 188.6 350, 193.33 324.79 C 195.33 314.14, 197 303.36, 197.03 300.85 C 197.1 295.49, 193.5 286.45, 190.18 283.63 C 187.45 281.32, 176.71 278.26, 171.12 278.2 C 163.22 278.11, 150.56 277.31, 138.78 276.15 C 121.2 274.43, 106.62 276.04, 101.39 280.29 C 95.76 284.87, 93.59 293.59, 96.39 300.39 C 99.86 308.83, 107.22 312.42, 118.11 311 C 123.7 310.27, 145.84 311.6, 147.2 312.75 C 147.73 313.21, 141.18 319.93, 133.2 327.11 C 128.22 331.59, 119.3 335.21, 114.05 334.88 C 108.14 334.51, 98.82 330.8, 91.43 325.87 C 85.24 321.74, 84.46 320.92, 81.29 315.15 C 73.51 301.04, 77.82 281.82, 93.74 259.61 C 97.37 254.55, 99.51 252.54, 106.15 247.97 C 114.99 241.88, 118.54 240.59, 130.71 239.02 C 139.52 237.88, 145.89 239.18, 153.99 243.76 C 158.04 246.06, 158.62 246.69, 158.9 249.21 C 159.71 256.21, 167.02 264.03, 174.35 265.71 C 183.66 267.85, 193.65 260.33, 194.9 250.25 C 195.47 245.62, 191.71 231.44, 188.65 226.66 C 185.12 221.15, 180.71 217.62, 171.12 212.63" fill="#FFFFFF" fill-rule="evenodd"/></g></svg>