<svg xmlns="http://www.w3.org/2000/svg" width="122" height="30" viewBox="20 181 975 239"><path d="M 171.12 212.63 C 154.88 204.17, 141.65 201.82, 124.55 204.35 C 104.33 207.35, 98.21 209.93, 81.12 222.71 C 74.47 227.69, 72.31 229.89, 66.49 237.62 C 48.77 261.18, 40 286.66, 42.51 307.27 C 43.85 318.26, 45.09 322.2, 50.44 332.49 C 56.13 343.42, 62.73 350.01, 75.78 357.78 C 85.5 363.57, 100.01 368.99, 108.14 369.87 C 120.34 371.18, 131.9 368.52, 145.94 361.16 C 151.71 358.13, 153.18 358.13, 151.92 361.16 C 150.56 364.4, 151.4 381.09, 153.14 385.6 C 157.85 397.8, 173.45 400, 182.18 389.69 C 186.14 385.02, 186.78 382.85, 186.4 375.44 C 186.06 368.61, 188.6 350, 193.33 324.79 C 195.33 314.14, 197 303.36, 197.03 300.85 C 197.1 295.49, 193.5 286.45, 190.18 283.63 C 187.45 281.32, 176.71 278.26, 171.12 278.2 C 163.22 278.11, 150.56 277.31, 138.78 276.15 C 121.2 274.43, 106.62 276.04, 101.39 280.29 C 95.76 284.87, 93.59 293.59, 96.39 300.39 C 99.86 308.83, 107.22 312.42, 118.11 311 C 123.7 310.27, 145.84 311.6, 147.2 312.75 C 147.73 313.21, 141.18 319.93, 133.2 327.11 C 128.22 331.59, 119.3 335.21, 114.05 334.88 C 108.14 334.51, 98.82 330.8, 91.43 325.87 C 85.24 321.74, 84.46 320.92, 81.29 315.15 C 73.51 301.04, 77.82 281.82, 93.74 259.61 C 97.37 254.55, 99.51 252.54, 106.15 247.97 C 114.99 241.88, 118.54 240.59, 130.71 239.02 C 139.52 237.88, 145.89 239.18, 153.99 243.76 C 158.04 246.06, 158.62 246.69, 158.9 249.21 C 159.71 256.21, 167.02 264.03, 174.35 265.71 C 183.66 267.85, 193.65 260.33, 194.9 250.25 C 195.47 245.62, 191.71 231.44, 188.65 226.66 C 185.12 221.15, 180.71 217.62, 171.12 212.63 M 285.39 218.72 C 274.44 218.57, 261.47 220.71, 253.69 223.94 C 247.9 226.35, 239.91 232.78, 236.39 237.86 C 234.78 240.19, 231.78 243.58, 229.73 245.39 C 223.11 251.24, 223.1 251.32, 226.63 290.28 C 228.09 306.4, 230.39 323.75, 232.38 333.6 C 233.15 337.41, 235.38 349.56, 237.34 360.58 C 241.37 383.2, 242.86 387.8, 247.36 391.51 C 257.66 400, 274.15 391.2, 272.52 378.08 C 272.26 375.95, 270.52 366.28, 268.67 356.61 L 265.3 339.02, 269.23 337.05 C 271.39 335.97, 275.06 333.72, 277.37 332.06 C 279.69 330.4, 283.13 328.5, 285.02 327.83 C 288.2 326.71, 289.02 326.87, 296.01 330.07 C 302.54 333.05, 304.39 334.44, 309.73 340.34 C 316.92 348.28, 323.19 358.44, 326.48 367.46 C 329.52 375.79, 331.98 378.46, 338.29 380.25 C 344.37 381.99, 348.48 380.99, 353.13 376.65 C 359.35 370.85, 359.44 363.81, 353.45 350.71 C 345.6 333.52, 342.69 329.06, 331.97 317.79 C 322.47 307.8, 321.04 306.64, 315.57 304.58 C 312.27 303.34, 309.47 301.81, 309.35 301.18 C 309.23 300.55, 311.3 296.43, 313.95 292.02 C 321.26 279.89, 325.6 265.29, 324.71 255.79 C 323.68 244.85, 317.93 233.65, 310.7 228.51 C 308.39 226.86, 303.31 224.01, 299.4 222.17 C 293.31 219.29, 291.32 218.8, 285.39 218.72 M 278.77 250.46 C 264.86 251.96, 263.45 252.78, 259.03 261.89 C 256.21 267.69, 256.19 267.93, 257.48 281.88 C 258.2 289.64, 259.12 296.12, 259.52 296.27 C 259.92 296.42, 263.01 294.58, 266.4 292.18 C 269.78 289.79, 275.03 286.43, 278.07 284.72 C 285.11 280.75, 289.45 274.15, 290.73 265.43 C 291.87 257.69, 291.76 256.76, 289.35 253.76 C 286.62 250.36, 284.82 249.8, 278.77 250.46 M 481.54 234.19 C 469.44 235.68, 438.35 239.32, 418.7 241.54 C 408.76 242.66, 406.32 243.44, 393.74 249.5 C 391.88 250.4, 389.25 252.83, 387.9 254.89 L 385.44 258.65, 386.13 277.92 C 386.52 288.52, 387.31 303.26, 387.89 310.68 C 390.27 340.73, 391.37 355.81, 392.13 368.66 C 392.92 381.97, 392.98 382.24, 396.75 388.35 C 398.85 391.76, 402.01 395.57, 403.77 396.81 C 408.29 400, 415.49 399.78, 421.46 396.28 C 424.31 394.61, 430.69 392.65, 438.93 390.89 C 446.07 389.38, 456.64 386.78, 462.4 385.13 C 477 380.94, 482.08 379.63, 496.17 376.41 C 502.94 374.86, 509.79 372.78, 511.41 371.78 C 521.41 365.62, 520.42 349.73, 509.71 344.56 C 506.15 342.84, 505.05 342.77, 498.22 343.85 C 494.07 344.5, 485.95 345.77, 480.18 346.67 C 474.41 347.57, 466.54 348.96, 462.7 349.77 C 451.36 352.13, 427.91 357.36, 425.65 358.02 C 423.71 358.59, 423.5 358.14, 422.87 351.81 C 422.49 348.06, 422.16 341.31, 422.13 336.82 L 422.08 328.65, 428.82 327.12 C 435.5 325.6, 449.47 322.73, 474.57 317.72 C 481.74 316.29, 490.01 315.1, 492.94 315.08 C 500.47 315.04, 505.62 313.19, 508.97 309.34 C 516.18 301.03, 512.46 287.31, 502.1 283.96 C 497.56 282.49, 485.94 283.32, 472.34 286.09 C 466.84 287.2, 452.79 290.07, 441.11 292.46 C 429.43 294.86, 419.66 296.6, 419.4 296.35 C 419.14 296.09, 418.78 290.73, 418.6 284.44 L 418.26 273.01, 426.26 272.28 C 430.65 271.87, 440.55 270.8, 448.24 269.88 C 455.94 268.97, 466.28 267.77, 471.23 267.21 C 476.17 266.65, 485.04 265.64, 490.93 264.97 C 503.38 263.55, 506.66 261.96, 509.73 255.85 C 513.39 248.58, 511.28 240.83, 504.23 235.63 C 501.03 233.27, 493.06 232.77, 481.54 234.19 M 563.88 247.98 C 557.38 250.45, 554.04 253.37, 552.58 257.84 C 551.1 262.4, 549.99 276.41, 549.79 293.37 C 549.68 302.25, 549.43 315.85, 549.25 323.6 C 549.06 331.34, 548.84 344.24, 548.76 352.26 C 548.68 360.28, 548.34 369.64, 547.99 373.06 C 547.41 378.85, 547.59 379.79, 550.59 386.7 C 554.47 395.63, 558.16 398.92, 565.07 399.62 C 568.9 400, 570.61 399.67, 574.16 397.84 C 576.83 396.47, 580.52 395.39, 583.61 395.09 C 593.01 394.15, 627.74 388.87, 655.66 384.13 C 666.12 382.35, 667.13 382.02, 669.88 379.4 C 674.07 375.42, 675.74 369.8, 674.31 364.53 C 671.86 355.5, 664.46 351.29, 653.73 352.83 C 650.82 353.24, 643.52 353.81, 637.49 354.08 C 626.63 354.57, 596.68 357.77, 585.62 359.62 C 581.76 360.26, 579.91 360.16, 580 359.31 C 580.07 358.62, 580.38 351.79, 580.68 344.15 L 581.23 330.26, 584.45 329.99 C 586.22 329.84, 593.54 329.04, 600.72 328.2 C 627.33 325.1, 649.37 323.23, 656.77 323.45 C 664.1 323.67, 664.51 323.58, 668.19 320.89 C 677.4 314.19, 677.2 301.33, 667.8 295.1 C 661.41 290.86, 649.26 291.08, 603.96 296.23 C 585.35 298.35, 582.75 298.53, 582.41 297.72 C 581.71 296.01, 582.05 275.32, 582.79 275.12 C 583.66 274.89, 640 273.89, 650.24 273.93 C 661.65 273.98, 663.66 273.85, 667.55 272.81 C 675.18 270.79, 679.79 262.58, 677.68 254.78 C 676.18 249.23, 672.91 245.25, 668.53 243.63 C 665.14 242.38, 651.48 241.96, 633.96 242.58 C 623.42 242.96, 614.51 243.1, 596.38 243.19 C 580.02 243.28, 573.82 244.19, 563.88 247.98 M 715.42 255.25 C 712.44 258.86, 711.46 263.24, 710.98 275.14 C 710.77 280.36, 709.85 292.87, 708.93 302.93 C 708.01 313, 707.07 328.96, 706.85 338.41 C 706.63 347.85, 706.28 362.39, 706.07 370.72 C 705.79 381.98, 706.13 386.88, 707.43 389.9 C 710.46 396.91, 718.63 400, 725.71 396.81 C 727.51 396, 730.16 395.51, 731.59 395.73 C 733.02 395.94, 739.17 395.68, 745.26 395.14 C 754.34 394.34, 758.46 393.39, 768.12 389.89 C 781.77 384.94, 784.22 383.48, 793.67 374.77 C 801.98 367.09, 809.05 356.18, 814.77 342.19 C 820.91 327.18, 822.49 318.12, 822.14 299.88 C 821.87 285.48, 818.61 276.84, 808.97 264.93 C 805.25 260.33, 801.55 256.06, 800.74 255.43 C 797.52 252.93, 785.57 247.93, 778.32 246.04 C 769.46 243.74, 765.69 243.41, 760.84 244.54 C 758.93 244.99, 753.54 246.07, 748.86 246.94 C 744.19 247.82, 739.12 249.35, 737.61 250.35 C 735.52 251.73, 734.25 251.9, 732.34 251.04 C 726.69 248.52, 719.5 250.31, 715.42 255.25 M 748.35 277.7 C 747.18 278.45, 744.67 280.87, 742.77 283.07 C 739.54 286.81, 739.23 288.02, 737.96 301.93 C 735.29 331.14, 734.3 358.59, 735.81 361.94 C 736.41 363.27, 757.23 358.51, 763.85 355.53 C 769.35 353.05, 780.06 345.51, 782.57 342.35 C 783.65 340.98, 786.46 335.01, 788.8 329.09 C 792.57 319.57, 793.09 316.96, 793.27 306.73 C 793.51 293.8, 792.62 290.84, 785.97 282.43 C 782.36 277.86, 781.01 276.93, 775.5 275.25 C 772.03 274.2, 768.12 273.32, 766.83 273.32 C 764.46 273.3, 751.19 275.56, 750.72 276.05 C 750.58 276.2, 749.51 276.94, 748.35 277.7 M 850.92 271.99 C 848.49 279.84, 852.15 287.31, 859.47 289.42 C 873.48 293.46, 881.17 296.34, 885.83 299.29 C 891.32 302.77, 902.08 309.06, 907.91 312.2 C 909.67 313.15, 911.63 314.45, 912.27 315.09 C 912.9 315.72, 914.89 323.9, 916.7 333.27 C 923.38 367.9, 929.25 391.57, 931.78 394.11 C 937.66 400, 946.08 399.84, 952.21 393.73 C 956.96 388.99, 957.13 386.38, 953.71 371.38 C 946.71 340.76, 941.34 311.14, 942.27 308.24 C 943.73 303.65, 948.9 292.48, 951.85 287.51 C 953.3 285.07, 955.74 280.82, 957.27 278.07 C 960.27 272.67, 966.9 263.23, 969.56 260.58 C 972.43 257.72, 974.31 250.42, 973.17 246.59 C 971.67 241.56, 965.35 236.37, 960.54 236.2 C 952.75 235.93, 949.51 238.22, 942.01 249.3 C 931.11 265.41, 925.81 274.39, 923.14 281.28 C 922.07 284.04, 920.7 286.3, 920.11 286.29 C 919.08 286.27, 908.99 280.5, 899.18 274.3 C 889.92 268.45, 871.44 262.08, 864.26 262.26 C 860.18 262.36, 855.75 263.95, 853.61 266.08 C 852.92 266.78, 851.71 269.43, 850.92 271.99" fill="#017356" fill-rule="evenodd"/></svg>